<?xml version="1.0" ?><svg id="Layer_1" style="enable-background:new 0 0 48 48;" version="1.1" viewBox="0 0 48 48" xml:space="preserve" xmlns="http://www.w3.org/2000/svg" xmlns:xlink="http://www.w3.org/1999/xlink"><linearGradient gradientUnits="userSpaceOnUse" id="SVGID_1_" x1="24" x2="24" y1="6.9867" y2="1.9931"><stop offset="0" style="stop-color:#2DBF00"/><stop offset="0.414" style="stop-color:#32D400"/><stop offset="0.6381" style="stop-color:#65E63E"/><stop offset="0.8833" style="stop-color:#99F87C"/><stop offset="1" style="stop-color:#ADFF94"/></linearGradient><path d="M25,2h-2c-0.552,0-1,0.448-1,1c0,0.552,1,1,1,2v2h2V5c0-1,1-1.448,1-2C26,2.448,25.552,2,25,2  z" style="fill:url(#SVGID_1_);"/><linearGradient gradientTransform="matrix(-1 0 0 -1 48 9)" gradientUnits="userSpaceOnUse" id="SVGID_2_" x1="24" x2="24" y1="-32.0133" y2="-37.0069"><stop offset="0" style="stop-color:#2DBF00"/><stop offset="0.414" style="stop-color:#32D400"/><stop offset="0.6381" style="stop-color:#65E63E"/><stop offset="0.8833" style="stop-color:#99F87C"/><stop offset="1" style="stop-color:#ADFF94"/></linearGradient><path d="M23,46h2c0.552,0,1-0.448,1-1c0-0.552-1-1-1-2v-2h-2v2c0,1-1,1.448-1,2  C22,45.552,22.448,46,23,46z" style="fill:url(#SVGID_2_);"/><linearGradient gradientTransform="matrix(0 1 -1 0 48 0)" gradientUnits="userSpaceOnUse" id="SVGID_3_" x1="24" x2="24" y1="6.9867" y2="1.9931"><stop offset="0" style="stop-color:#2DBF00"/><stop offset="0.414" style="stop-color:#32D400"/><stop offset="0.6381" style="stop-color:#65E63E"/><stop offset="0.8833" style="stop-color:#99F87C"/><stop offset="1" style="stop-color:#ADFF94"/></linearGradient><path d="M46,25v-2c0-0.552-0.448-1-1-1c-0.552,0-1,1-2,1h-2v2h2c1,0,1.448,1,2,1  C45.552,26,46,25.552,46,25z" style="fill:url(#SVGID_3_);"/><linearGradient gradientTransform="matrix(0 -1 1 0 39 48)" gradientUnits="userSpaceOnUse" id="SVGID_4_" x1="24" x2="24" y1="-32.0133" y2="-37.0069"><stop offset="0" style="stop-color:#2DBF00"/><stop offset="0.414" style="stop-color:#32D400"/><stop offset="0.6381" style="stop-color:#65E63E"/><stop offset="0.8833" style="stop-color:#99F87C"/><stop offset="1" style="stop-color:#ADFF94"/></linearGradient><path d="M2,23v2c0,0.552,0.448,1,1,1c0.552,0,1-1,2-1h2v-2H5c-1,0-1.448-1-2-1C2.448,22,2,22.448,2,23  z" style="fill:url(#SVGID_4_);"/><linearGradient gradientTransform="matrix(0.866 -0.5 0.5 0.866 -8.7846 15.2154)" gradientUnits="userSpaceOnUse" id="SVGID_5_" x1="24" x2="24" y1="6.9867" y2="1.9931"><stop offset="0" style="stop-color:#2DBF00"/><stop offset="0.414" style="stop-color:#32D400"/><stop offset="0.6381" style="stop-color:#65E63E"/><stop offset="0.8833" style="stop-color:#99F87C"/><stop offset="1" style="stop-color:#ADFF94"/></linearGradient><path d="M13.866,4.447l-1.732,1c-0.478,0.276-0.642,0.888-0.366,1.366  c0.276,0.478,1.366,0.366,1.866,1.232l1,1.732l1.732-1l-1-1.732c-0.5-0.866,0.142-1.754-0.134-2.232  C14.956,4.335,14.344,4.171,13.866,4.447z" style="fill:url(#SVGID_5_);"/><linearGradient gradientTransform="matrix(-0.866 0.5 -0.5 -0.866 37.2846 -0.9904)" gradientUnits="userSpaceOnUse" id="SVGID_6_" x1="24" x2="24" y1="-32.0133" y2="-37.0069"><stop offset="0" style="stop-color:#2DBF00"/><stop offset="0.414" style="stop-color:#32D400"/><stop offset="0.6381" style="stop-color:#65E63E"/><stop offset="0.8833" style="stop-color:#99F87C"/><stop offset="1" style="stop-color:#ADFF94"/></linearGradient><path d="M34.134,43.553l1.732-1c0.478-0.276,0.642-0.888,0.366-1.366  c-0.276-0.478-1.366-0.366-1.866-1.232l-1-1.732l-1.732,1l1,1.732c0.5,0.866-0.142,1.754,0.134,2.232  C33.044,43.665,33.656,43.829,34.134,43.553z" style="fill:url(#SVGID_6_);"/><linearGradient gradientTransform="matrix(0.5 0.866 -0.866 0.5 32.7846 -8.7846)" gradientUnits="userSpaceOnUse" id="SVGID_7_" x1="24" x2="24" y1="6.9867" y2="1.9931"><stop offset="0" style="stop-color:#2DBF00"/><stop offset="0.414" style="stop-color:#32D400"/><stop offset="0.6381" style="stop-color:#65E63E"/><stop offset="0.8833" style="stop-color:#99F87C"/><stop offset="1" style="stop-color:#ADFF94"/></linearGradient><path d="M43.553,13.866l-1-1.732c-0.276-0.478-0.888-0.642-1.366-0.366  c-0.478,0.276-0.366,1.366-1.232,1.866l-1.732,1l1,1.732l1.732-1c0.866-0.5,1.754,0.142,2.232-0.134  C43.665,14.956,43.829,14.344,43.553,13.866z" style="fill:url(#SVGID_7_);"/><linearGradient gradientTransform="matrix(-0.5 -0.866 0.866 -0.5 48.9904 37.2846)" gradientUnits="userSpaceOnUse" id="SVGID_8_" x1="24" x2="24" y1="-32.0133" y2="-37.0069"><stop offset="0" style="stop-color:#2DBF00"/><stop offset="0.414" style="stop-color:#32D400"/><stop offset="0.6381" style="stop-color:#65E63E"/><stop offset="0.8833" style="stop-color:#99F87C"/><stop offset="1" style="stop-color:#ADFF94"/></linearGradient><path d="M4.447,34.134l1,1.732c0.276,0.478,0.888,0.642,1.366,0.366  c0.478-0.276,0.366-1.366,1.232-1.866l1.732-1l-1-1.732l-1.732,1c-0.866,0.5-1.754-0.142-2.232,0.134  C4.335,33.044,4.171,33.656,4.447,34.134z" style="fill:url(#SVGID_8_);"/><linearGradient gradientTransform="matrix(0.5 -0.866 0.866 0.5 -8.7846 32.7846)" gradientUnits="userSpaceOnUse" id="SVGID_9_" x1="24" x2="24" y1="6.9867" y2="1.9931"><stop offset="0" style="stop-color:#2DBF00"/><stop offset="0.414" style="stop-color:#32D400"/><stop offset="0.6381" style="stop-color:#65E63E"/><stop offset="0.8833" style="stop-color:#99F87C"/><stop offset="1" style="stop-color:#ADFF94"/></linearGradient><path d="M5.447,12.134l-1,1.732c-0.276,0.478-0.112,1.09,0.366,1.366  c0.478,0.276,1.366-0.366,2.232,0.134l1.732,1l1-1.732l-1.732-1c-0.866-0.5-0.754-1.59-1.232-1.866  C6.335,11.492,5.724,11.656,5.447,12.134z" style="fill:url(#SVGID_9_);"/><linearGradient gradientTransform="matrix(-0.5 0.866 -0.866 -0.5 23.0096 -4.2846)" gradientUnits="userSpaceOnUse" id="SVGID_10_" x1="24" x2="24" y1="-32.0133" y2="-37.0069"><stop offset="0" style="stop-color:#2DBF00"/><stop offset="0.414" style="stop-color:#32D400"/><stop offset="0.6381" style="stop-color:#65E63E"/><stop offset="0.8833" style="stop-color:#99F87C"/><stop offset="1" style="stop-color:#ADFF94"/></linearGradient><path d="M42.553,35.866l1-1.732c0.276-0.478,0.112-1.09-0.366-1.366  c-0.478-0.276-1.366,0.366-2.232-0.134l-1.732-1l-1,1.732l1.732,1c0.866,0.5,0.754,1.59,1.232,1.866  C41.665,36.508,42.276,36.344,42.553,35.866z" style="fill:url(#SVGID_10_);"/><linearGradient gradientTransform="matrix(0.866 0.5 -0.5 0.866 15.2154 -8.7846)" gradientUnits="userSpaceOnUse" id="SVGID_11_" x1="24" x2="24" y1="6.9867" y2="1.9931"><stop offset="0" style="stop-color:#2DBF00"/><stop offset="0.414" style="stop-color:#32D400"/><stop offset="0.6381" style="stop-color:#65E63E"/><stop offset="0.8833" style="stop-color:#99F87C"/><stop offset="1" style="stop-color:#ADFF94"/></linearGradient><path d="M35.866,5.447l-1.732-1c-0.478-0.276-1.09-0.112-1.366,0.366  c-0.276,0.478,0.366,1.366-0.134,2.232l-1,1.732l1.732,1l1-1.732c0.5-0.866,1.59-0.754,1.866-1.232  C36.508,6.335,36.344,5.724,35.866,5.447z" style="fill:url(#SVGID_11_);"/><linearGradient gradientTransform="matrix(-0.866 -0.5 0.5 -0.866 52.2846 23.0096)" gradientUnits="userSpaceOnUse" id="SVGID_12_" x1="24" x2="24" y1="-32.0133" y2="-37.0069"><stop offset="0" style="stop-color:#2DBF00"/><stop offset="0.414" style="stop-color:#32D400"/><stop offset="0.6381" style="stop-color:#65E63E"/><stop offset="0.8833" style="stop-color:#99F87C"/><stop offset="1" style="stop-color:#ADFF94"/></linearGradient><path d="M12.134,42.553l1.732,1c0.478,0.276,1.09,0.112,1.366-0.366  c0.276-0.478-0.366-1.366,0.134-2.232l1-1.732l-1.732-1l-1,1.732c-0.5,0.866-1.59,0.754-1.866,1.232  C11.492,41.665,11.656,42.276,12.134,42.553z" style="fill:url(#SVGID_12_);"/><radialGradient cx="24" cy="24" gradientTransform="matrix(1 0 0 -1 0 48)" gradientUnits="userSpaceOnUse" id="SVGID_13_" r="18"><stop offset="0" style="stop-color:#2DBF00"/><stop offset="0.414" style="stop-color:#32D400"/><stop offset="0.4889" style="stop-color:#3AD70A"/><stop offset="0.615" style="stop-color:#50DE24"/><stop offset="0.7766" style="stop-color:#73EB4E"/><stop offset="0.9658" style="stop-color:#A4FC89"/><stop offset="1" style="stop-color:#ADFF94"/></radialGradient><circle cx="24" cy="24" r="18" style="fill:url(#SVGID_13_);"/><radialGradient cx="24" cy="27" gradientUnits="userSpaceOnUse" id="SVGID_14_" r="5"><stop offset="0" style="stop-color:#228F00"/><stop offset="1" style="stop-color:#228F00;stop-opacity:0"/></radialGradient><circle cx="24" cy="27" r="5" style="fill:url(#SVGID_14_);"/><radialGradient cx="24" cy="13" gradientUnits="userSpaceOnUse" id="SVGID_15_" r="4"><stop offset="0" style="stop-color:#228F00"/><stop offset="1" style="stop-color:#228F00;stop-opacity:0"/></radialGradient><circle cx="24" cy="13" r="4" style="fill:url(#SVGID_15_);"/><radialGradient cx="14" cy="20" gradientTransform="matrix(0.8644 0 0 1 1.3559 0)" gradientUnits="userSpaceOnUse" id="SVGID_16_" r="4"><stop offset="0" style="stop-color:#228F00"/><stop offset="1" style="stop-color:#228F00;stop-opacity:0"/></radialGradient><ellipse cx="13.458" cy="20" rx="3.458" ry="4" style="fill:url(#SVGID_16_);"/><radialGradient cx="14" cy="31" gradientTransform="matrix(0.8644 0 0 1 1.3559 0)" gradientUnits="userSpaceOnUse" id="SVGID_17_" r="4"><stop offset="0" style="stop-color:#228F00"/><stop offset="1" style="stop-color:#228F00;stop-opacity:0"/></radialGradient><ellipse cx="13.458" cy="31" rx="3.458" ry="4" style="fill:url(#SVGID_17_);"/><radialGradient cx="14" cy="20" gradientTransform="matrix(-0.8644 0 0 1 46.6441 0)" gradientUnits="userSpaceOnUse" id="SVGID_18_" r="4"><stop offset="0" style="stop-color:#228F00"/><stop offset="1" style="stop-color:#228F00;stop-opacity:0"/></radialGradient><ellipse cx="34.542" cy="20" rx="3.458" ry="4" style="fill:url(#SVGID_18_);"/><radialGradient cx="14" cy="31" gradientTransform="matrix(-0.8644 0 0 1 46.6441 0)" gradientUnits="userSpaceOnUse" id="SVGID_19_" r="4"><stop offset="0" style="stop-color:#228F00"/><stop offset="1" style="stop-color:#228F00;stop-opacity:0"/></radialGradient><ellipse cx="34.542" cy="31" rx="3.458" ry="4" style="fill:url(#SVGID_19_);"/><radialGradient cx="24" cy="37" gradientUnits="userSpaceOnUse" id="SVGID_20_" r="4"><stop offset="0" style="stop-color:#228F00"/><stop offset="1" style="stop-color:#228F00;stop-opacity:0"/></radialGradient><circle cx="24" cy="37" r="4" style="fill:url(#SVGID_20_);"/><radialGradient cx="24" cy="24" gradientUnits="userSpaceOnUse" id="SVGID_21_" r="4"><stop offset="0" style="stop-color:#2DBF00"/><stop offset="0.414" style="stop-color:#32D400"/><stop offset="0.4889" style="stop-color:#3AD70A"/><stop offset="0.615" style="stop-color:#50DE24"/><stop offset="0.7766" style="stop-color:#73EB4E"/><stop offset="0.9658" style="stop-color:#A4FC89"/><stop offset="1" style="stop-color:#ADFF94"/></radialGradient><circle cx="24" cy="24" r="4" style="fill:url(#SVGID_21_);"/><radialGradient cx="24" cy="11.8" gradientTransform="matrix(1 0 0 0.8333 0 1.6667)" gradientUnits="userSpaceOnUse" id="SVGID_22_" r="3"><stop offset="0" style="stop-color:#2DBF00"/><stop offset="0.414" style="stop-color:#32D400"/><stop offset="0.4889" style="stop-color:#3AD70A"/><stop offset="0.615" style="stop-color:#50DE24"/><stop offset="0.7766" style="stop-color:#73EB4E"/><stop offset="0.9658" style="stop-color:#A4FC89"/><stop offset="1" style="stop-color:#ADFF94"/></radialGradient><ellipse cx="24" cy="11.5" rx="3" ry="2.5" style="fill:url(#SVGID_22_);"/><radialGradient cx="24" cy="13" gradientTransform="matrix(-1 0 0 -0.8333 48 46.3333)" gradientUnits="userSpaceOnUse" id="SVGID_23_" r="3"><stop offset="0" style="stop-color:#2DBF00"/><stop offset="0.414" style="stop-color:#32D400"/><stop offset="0.4889" style="stop-color:#3AD70A"/><stop offset="0.615" style="stop-color:#50DE24"/><stop offset="0.7766" style="stop-color:#73EB4E"/><stop offset="0.9658" style="stop-color:#A4FC89"/><stop offset="1" style="stop-color:#ADFF94"/></radialGradient><ellipse cx="24" cy="35.5" rx="3" ry="2.5" style="fill:url(#SVGID_23_);"/><radialGradient cx="24.5" cy="11.9608" gradientTransform="matrix(-0.5 -0.866 0.7217 -0.4167 16.6588 55.9513)" gradientUnits="userSpaceOnUse" id="SVGID_24_" r="3"><stop offset="0" style="stop-color:#2DBF00"/><stop offset="0.414" style="stop-color:#32D400"/><stop offset="0.4889" style="stop-color:#3AD70A"/><stop offset="0.615" style="stop-color:#50DE24"/><stop offset="0.7766" style="stop-color:#73EB4E"/><stop offset="0.9658" style="stop-color:#A4FC89"/><stop offset="1" style="stop-color:#ADFF94"/></radialGradient><path d="M11.541,27.152c1.196-0.69,2.837-0.087,3.665,1.348s0.531,3.158-0.665,3.848  c-1.196,0.69-2.837,0.087-3.665-1.348C10.047,29.565,10.345,27.842,11.541,27.152z" style="fill:url(#SVGID_24_);"/><radialGradient cx="24.5" cy="11.9608" gradientTransform="matrix(0.5 0.866 -0.7217 0.4167 31.3412 -7.9513)" gradientUnits="userSpaceOnUse" id="SVGID_25_" r="3"><stop offset="0" style="stop-color:#2DBF00"/><stop offset="0.414" style="stop-color:#32D400"/><stop offset="0.4889" style="stop-color:#3AD70A"/><stop offset="0.615" style="stop-color:#50DE24"/><stop offset="0.7766" style="stop-color:#73EB4E"/><stop offset="0.9658" style="stop-color:#A4FC89"/><stop offset="1" style="stop-color:#ADFF94"/></radialGradient><path d="M36.459,20.848c-1.196,0.69-2.837,0.087-3.665-1.348s-0.531-3.158,0.665-3.848  c1.196-0.69,2.837-0.087,3.665,1.348S37.655,20.158,36.459,20.848z" style="fill:url(#SVGID_25_);"/><radialGradient cx="23.5" cy="11.9608" gradientTransform="matrix(-0.5 0.866 -0.7217 -0.4167 55.3412 14.3821)" gradientUnits="userSpaceOnUse" id="SVGID_26_" r="3"><stop offset="0" style="stop-color:#2DBF00"/><stop offset="0.414" style="stop-color:#32D400"/><stop offset="0.4889" style="stop-color:#3AD70A"/><stop offset="0.615" style="stop-color:#50DE24"/><stop offset="0.7766" style="stop-color:#73EB4E"/><stop offset="0.9658" style="stop-color:#A4FC89"/><stop offset="1" style="stop-color:#ADFF94"/></radialGradient><path d="M33.459,32.348c-1.196-0.69-1.493-2.413-0.665-3.848s2.469-2.038,3.665-1.348  c1.196,0.69,1.493,2.413,0.665,3.848C36.296,32.435,34.655,33.038,33.459,32.348z" style="fill:url(#SVGID_26_);"/><radialGradient cx="23.5" cy="11.9608" gradientTransform="matrix(0.5 -0.866 0.7217 0.4167 -7.3412 33.6179)" gradientUnits="userSpaceOnUse" id="SVGID_27_" r="3"><stop offset="0" style="stop-color:#2DBF00"/><stop offset="0.414" style="stop-color:#32D400"/><stop offset="0.4889" style="stop-color:#3AD70A"/><stop offset="0.615" style="stop-color:#50DE24"/><stop offset="0.7766" style="stop-color:#73EB4E"/><stop offset="0.9658" style="stop-color:#A4FC89"/><stop offset="1" style="stop-color:#ADFF94"/></radialGradient><path d="M14.541,15.652c1.196,0.69,1.493,2.413,0.665,3.848s-2.469,2.038-3.665,1.348  c-1.196-0.69-1.493-2.413-0.665-3.848C11.704,15.565,13.345,14.962,14.541,15.652z" style="fill:url(#SVGID_27_);"/></svg>